<svg width="72" height="297" viewBox="0 0 72 297" fill="none" xmlns="http://www.w3.org/2000/svg">
<path d="M0.949412 296.577V283.534C11.4346 283.534 18.723 279.698 22.8148 272.026C29.2082 260.007 32.4049 236.863 32.4049 202.594V165.385C32.9164 156.69 36.7524 151.063 43.913 148.506C36.4967 146.204 32.6606 141.729 32.4049 135.08V102.09C32.4049 59.3821 30.2311 33.425 25.8836 24.2185C22.8148 17.3136 16.2935 13.6055 6.31986 13.094C4.78545 13.094 2.9953 13.094 0.949412 13.094V0.0514835C19.3624 0.0514835 31.7656 5.29406 38.1589 15.7792C44.5523 26.0086 47.749 43.5265 47.749 68.3329V125.49C48.0048 133.673 52.0965 139.683 60.0243 143.519C61.5588 144.286 65.3948 145.949 71.5324 148.506C60.2801 154.388 54.0146 157.84 52.7359 158.863C49.4113 162.188 47.749 166.152 47.749 170.755V229.063C47.749 264.354 39.1819 285.58 22.0476 292.741C16.1657 295.298 9.13295 296.577 0.949412 296.577Z" fill="black"/>
</svg>