<svg width="72" height="297" viewBox="0 0 72 297" fill="white" xmlns="http://www.w3.org/2000/svg">
<path d="M0.754051 148.506C11.7507 143.903 18.3998 140.195 20.7014 137.382C23.003 134.313 24.2817 130.349 24.5375 125.49V68.3329C24.5375 35.0873 30.6751 14.5005 42.9504 6.57274C49.3438 2.22524 58.806 0.0514835 71.3371 0.0514835V13.094C59.5732 13.094 51.9012 15.6514 48.3209 20.7661C43.2062 27.9267 40.3931 48.6413 39.8816 82.9098C39.8816 88.536 39.8816 94.9294 39.8816 102.09V135.08C39.8816 141.985 36.3013 146.332 29.1407 148.122C28.885 148.378 28.6292 148.506 28.3735 148.506C36.0456 151.319 39.8816 156.945 39.8816 165.385V202.594C39.8816 247.859 45.7635 273.816 57.5274 280.466C61.1077 282.511 65.7109 283.534 71.3371 283.534V296.577C49.8553 296.577 35.9177 287.37 29.5243 268.957C26.1997 258.728 24.5375 245.43 24.5375 229.063V170.755C24.5375 164.362 20.5736 158.991 12.6458 154.644C11.6228 153.876 9.7048 152.854 6.89171 151.575C4.07861 150.296 2.03273 149.273 0.754051 148.506Z" fill="white"/>
</svg>
